<svg width="100%" height="100%" style="overflow:visible;" viewBox="0 0 22.9 50.87" fill="none" xmlns="http://www.w3.org/2000/svg"><path d="M23.2048 25.0324L16.3743 13.3329L13.4652 19.6591L16.6018 25.0322C16.8912 25.5285 16.8912 26.339 16.6018 26.8349L15.6946 28.3885C15.6946 28.3885 16.3064 29.9572 16.3345 30.0516C16.4756 30.5367 16.5097 31.6755 16.1091 32.195L8.97504 41.5779C8.97337 44.7266 8.97087 51.2006 8.97379 51.2034C8.97504 51.2041 23.205 26.8347 23.205 26.8347C23.4942 26.3385 23.4942 25.5287 23.2048 25.0324Z" fill="#3E8EDE"/><path d="M7.34027 26.5046C7.05194 26.011 7.05194 25.2012 7.34027 24.7048L8.24871 23.1485L7.62767 21.6197C7.33152 20.9013 7.42475 19.8799 7.83309 19.345L14.9685 9.96145L14.9734 0.341959L14.9693 0.338033L14.9657 0.329468L0.737983 24.7048C0.4484 25.2012 0.4484 26.011 0.738608 26.5069L7.56767 38.2066L10.4776 31.8804L7.34027 26.5046Z" fill="#002D73"/><path d="M18.5646 6.02789C18.699 6.02789 18.8299 6.16833 18.8901 6.37694C18.9986 6.76042 18.8419 7.10233 18.7557 7.2906L12.5035 20.8854C12.4401 21.0225 12.4348 21.3176 12.4931 21.4593C12.5268 21.5432 15.8685 29.8479 15.9834 30.13C16.1477 30.5352 16.1322 31.5788 15.8048 32.0039L5.75226 45.2245C5.61111 45.4099 5.50642 45.5107 5.35996 45.5131C5.23382 45.4986 5.10736 45.3562 5.05246 45.167C4.94236 44.7839 5.10736 44.4199 5.18653 44.2453L11.437 30.6564C11.5011 30.5094 11.5075 30.229 11.4498 30.0793L7.96069 21.4838C7.70778 20.8676 7.78632 19.9935 8.1358 19.5356L18.1902 6.31323C18.3413 6.11051 18.4499 6.02789 18.5646 6.02789ZM18.5646 5.98328C18.4439 5.98328 18.3306 6.0684 18.1741 6.27772L8.11986 19.4999C7.75871 19.9732 7.67798 20.8726 7.93934 21.5093L11.4283 30.1046C11.4797 30.2381 11.4732 30.4987 11.4161 30.6296L5.16601 44.2179C5.08351 44.3999 4.91205 44.7796 5.02913 45.1868C5.08798 45.3901 5.22288 45.5421 5.35819 45.5577C5.51486 45.5553 5.62694 45.4452 5.76798 45.26L15.8206 32.0394C16.1682 31.5883 16.1694 30.5112 16.0049 30.1046C15.8887 29.8191 12.5145 21.434 12.5145 21.434C12.4628 21.3082 12.4677 21.0346 12.5239 20.9131L18.7761 7.31808C18.858 7.13927 19.0301 6.76935 18.9135 6.35731C18.8489 6.13407 18.7097 5.98328 18.5646 5.98328Z" fill="#3E8EDE"/><path d="M15.644 30.2629C15.725 30.4731 15.7981 31.269 15.5942 31.532L5.54024 44.7544C5.45556 44.8654 5.40139 44.9191 5.37722 44.9157C5.34253 44.9191 5.36764 44.8137 5.45993 44.6097L11.7095 31.0245C11.8676 30.6741 11.8783 30.0996 11.7332 29.742L8.24451 21.1411C8.24451 21.1413 15.5633 30.0518 15.644 30.2629Z" fill="#FFCE00"/><path d="M15.644 30.263L12.2084 21.797C12.0626 21.4381 12.0742 20.8623 12.2304 20.5207L18.481 6.92713C18.5739 6.72459 18.598 6.62341 18.5645 6.62341C18.5397 6.62341 18.4846 6.67302 18.4015 6.78616L8.34724 20.0069C8.14547 20.2728 8.09776 20.7846 8.24453 21.1413L15.644 30.263Z" fill="#FFDE6E"/></svg>